<svg width="40" height="40" viewBox="0 0 40 40" fill="none" xmlns="http://www.w3.org/2000/svg">
<path d="M11.6667 11.6667V8.33333C11.6668 7.36812 11.9462 6.42356 12.4712 5.61364C12.9962 4.80373 13.7444 4.16309 14.6256 3.76906C15.5067 3.37503 16.483 3.24444 17.4367 3.39307C18.3904 3.5417 19.2807 3.96319 20.0001 4.60666C20.7195 3.96319 21.6098 3.5417 22.5635 3.39307C23.5172 3.24444 24.4935 3.37503 25.3746 3.76906C26.2557 4.16309 27.0039 4.80373 27.529 5.61364C28.054 6.42356 28.3334 7.36812 28.3334 8.33333V11.6667H30.8334C31.4965 11.6667 32.1323 11.9301 32.6012 12.3989C33.07 12.8677 33.3334 13.5036 33.3334 14.1667V30.8417C33.3334 32.3865 32.7197 33.8682 31.6273 34.9606C30.5349 36.053 29.0533 36.6667 27.5084 36.6667H13.3334C11.5653 36.6667 9.86961 35.9643 8.61937 34.714C7.36913 33.4638 6.66675 31.7681 6.66675 30V14.1667C6.66675 13.5036 6.93014 12.8677 7.39898 12.3989C7.86782 11.9301 8.50371 11.6667 9.16675 11.6667H11.6667ZM22.7251 34.1667C22.0452 33.1913 21.6815 32.0306 21.6834 30.8417V14.1667H9.16675V30C9.16675 30.5472 9.27452 31.089 9.48392 31.5945C9.69331 32.1 10.0002 32.5594 10.3871 32.9463C10.774 33.3332 11.2334 33.6401 11.7389 33.8495C12.2444 34.0589 12.7862 34.1667 13.3334 34.1667H22.7251ZM19.1667 11.6667V8.33333C19.1667 7.67028 18.9034 7.0344 18.4345 6.56556C17.9657 6.09672 17.3298 5.83333 16.6667 5.83333C16.0037 5.83333 15.3678 6.09672 14.899 6.56556C14.4301 7.0344 14.1667 7.67028 14.1667 8.33333V11.6667H19.1667ZM21.6667 11.6667H25.8334V8.33333C25.8335 7.81872 25.6747 7.31663 25.3788 6.8956C25.0829 6.47457 24.6643 6.15511 24.1801 5.98082C23.6959 5.80654 23.1697 5.78593 22.6734 5.9218C22.177 6.05767 21.7347 6.3434 21.4067 6.73999C21.5751 7.23999 21.6667 7.77666 21.6667 8.33333V11.6667ZM24.1834 30.8417C24.1834 31.7235 24.5337 32.5692 25.1573 33.1928C25.7808 33.8163 26.6266 34.1667 27.5084 34.1667C28.3903 34.1667 29.236 33.8163 29.8595 33.1928C30.4831 32.5692 30.8334 31.7235 30.8334 30.8417V14.1667H24.1834V30.8417Z" fill="white"/>
</svg>
