<svg width="41" height="40" viewBox="0 0 41 40" fill="none" xmlns="http://www.w3.org/2000/svg">
<path d="M20.5 37.2727C30.0395 37.2727 37.7728 29.5395 37.7728 20C37.7728 10.4605 30.0395 2.72726 20.5 2.72726C10.9606 2.72726 3.22729 10.4605 3.22729 20C3.22729 29.5395 10.9606 37.2727 20.5 37.2727Z" stroke="black" stroke-width="2" stroke-linecap="round" stroke-linejoin="round"/>
<path d="M25.5909 14.547C25.2615 13.9758 24.783 13.5049 24.2065 13.1847C23.63 12.8646 22.9772 12.7071 22.3181 12.7293H18.6818C17.7174 12.7293 16.7924 13.1123 16.1105 13.7941C15.4285 14.4758 15.0454 15.4005 15.0454 16.3647C15.0454 17.3288 15.4285 18.2535 16.1105 18.9352C16.7924 19.617 17.7174 20 18.6818 20H22.3181C23.2826 20 24.2075 20.383 24.8894 21.0648C25.5714 21.7465 25.9545 22.6712 25.9545 23.6353C25.9545 24.5995 25.5714 25.5241 24.8894 26.2059C24.2075 26.8877 23.2826 27.2707 22.3181 27.2707H18.6818C18.0227 27.2928 17.3699 27.1354 16.7934 26.8152C16.217 26.4951 15.7384 26.0242 15.409 25.453" stroke="black" stroke-width="2.75" stroke-linecap="round" stroke-linejoin="round"/>
<path d="M20.5 8.18182V12.1212M20.5 27.8788V31.8182" stroke="black" stroke-width="2.75" stroke-linecap="round" stroke-linejoin="round"/>
</svg>
