<svg width="41" height="40" viewBox="0 0 41 40" fill="none" xmlns="http://www.w3.org/2000/svg">
<path d="M20.9276 18.1456V18.6456L21.4276 18.6456C22.0913 18.6457 22.7387 18.8514 23.2807 19.2346C23.8227 19.6178 24.2325 20.1596 24.4538 20.7854C24.4725 20.8382 24.4805 20.8942 24.4775 20.9502C24.4745 21.0062 24.4605 21.0611 24.4363 21.1117C24.4121 21.1624 24.3782 21.2077 24.3365 21.2452C24.2947 21.2828 24.246 21.3117 24.1931 21.3304C24.1402 21.3491 24.0841 21.3571 24.0281 21.3542C23.972 21.3512 23.9171 21.3372 23.8665 21.313C23.7642 21.2641 23.6856 21.1766 23.6479 21.0697L23.6478 21.0695C23.4854 20.6104 23.1847 20.213 22.787 19.9319C22.3894 19.6509 21.9144 19.5 21.4275 19.5002L20.9276 19.5003V20.0002V23.7092V24.2092H21.4276C22.2787 24.2092 23.0949 24.5473 23.6967 25.1491C24.2985 25.7509 24.6366 26.5672 24.6366 27.4183C24.6366 28.2694 24.2985 29.0856 23.6967 29.6874C23.0949 30.2892 22.2787 30.6273 21.4276 30.6273H20.9276V31.1273V31.5546H20.0731V31.1273V30.6273L19.5731 30.6273C18.9093 30.6273 18.2619 30.4215 17.7199 30.0383C17.178 29.6551 16.7681 29.1134 16.5468 28.4876L16.547 28.4875L16.542 28.4744C16.5214 28.4211 16.5117 28.3642 16.5136 28.3071C16.5154 28.25 16.5286 28.1939 16.5525 28.142C16.5764 28.0901 16.6105 28.0435 16.6527 28.005C16.6949 27.9665 16.7444 27.9369 16.7983 27.9179C16.8521 27.8988 16.9093 27.8908 16.9663 27.8942C17.0233 27.8977 17.0791 27.9125 17.1303 27.9379C17.1815 27.9632 17.2271 27.9986 17.2643 28.0419C17.3016 28.0852 17.3298 28.1355 17.3473 28.1899L17.3496 28.1969L17.3521 28.2039C17.6766 29.1186 18.5481 29.7728 19.5731 29.7728H20.0731V29.2728V25.5637V25.0637H19.5731C18.722 25.0637 17.9057 24.7256 17.3039 24.1238C16.7021 23.522 16.364 22.7058 16.364 21.8547C16.364 21.0036 16.7021 20.1874 17.3039 19.5856C17.9057 18.9837 18.722 18.6456 19.5731 18.6456H20.0731V18.1456V17.7184H20.9276V18.1456ZM20.0731 20.0002V19.5002H19.5731C18.9486 19.5002 18.3497 19.7482 17.9082 20.1898C17.4666 20.6314 17.2185 21.2302 17.2185 21.8547C17.2185 22.4792 17.4666 23.078 17.9082 23.5196C18.3497 23.9612 18.9486 24.2092 19.5731 24.2092H20.0731V23.7092V20.0002ZM20.9276 29.2728V29.7728H21.4276C22.052 29.7728 22.6509 29.5247 23.0925 29.0832C23.534 28.6416 23.7821 28.0427 23.7821 27.4183C23.7821 26.7938 23.534 26.1949 23.0925 25.7534C22.6509 25.3118 22.052 25.0637 21.4276 25.0637H20.9276V25.5637V29.2728Z" fill="#FAFAFA" stroke="#FAFAFA"/>
<path d="M27.7695 12.5772L28.0001 12.8203C29.8981 14.8211 31.4858 17.0948 32.7105 19.5658L32.7115 19.5677C33.9873 22.1703 34.7037 24.8133 34.5867 27.1301L34.5867 27.1301C34.4723 29.3912 33.5716 31.3572 31.5218 32.806L31.5218 32.806C29.4129 34.296 25.9467 35.3336 20.5354 35.3336C15.1198 35.3336 11.6397 34.3141 9.51316 32.8421L9.51293 32.842C7.44943 31.412 6.53763 29.472 6.41014 27.2374L27.7695 12.5772ZM27.7695 12.5772L27.457 12.698M27.7695 12.5772L27.457 12.698M27.457 12.698C23.1083 14.3797 17.8707 14.3798 13.5219 12.6998L13.3417 13.1662L12.9752 12.8262C11.1573 14.7856 9.46566 17.1897 8.25095 19.6929L8.25091 19.6929M27.457 12.698L8.25091 19.6929M8.25091 19.6929C6.98037 22.3123 6.2784 24.9432 6.41013 27.2372L8.25091 19.6929ZM30.3428 6.18139C30.7832 6.39923 31.1642 6.60759 31.4775 6.79428L28.3457 11.3725L28.114 11.7111L28.4009 12.0044C30.3394 13.9861 32.1697 16.5164 33.4805 19.1919C34.7935 21.8721 35.5679 24.6624 35.441 27.1735C35.3151 29.6637 34.3054 31.8863 32.0163 33.5035C29.7051 35.1363 26.0382 36.1881 20.5364 36.1881C15.0332 36.1881 11.3544 35.1551 9.02802 33.5441C6.72448 31.9489 5.6991 29.7543 5.55803 27.2856C5.41571 24.7951 6.17576 22.0153 7.48354 19.3201C8.7889 16.6299 10.6229 14.0598 12.5812 11.9993L12.8589 11.7071L12.6323 11.3738L9.52247 6.79791C9.67984 6.70521 9.8536 6.60746 10.043 6.50656L10.043 6.50656L10.0447 6.50564C10.2353 6.40316 10.4408 6.29767 10.6614 6.19013L10.8573 6.09459C13.1034 5.02401 16.6645 3.80945 20.5364 3.80945C24.4385 3.80945 27.9975 5.04283 30.2165 6.12006L30.3412 6.18057C30.3417 6.18084 30.3423 6.18111 30.3428 6.18139ZM29.7117 7.86178L30.2968 7.00635L29.2631 7.08078C26.6696 7.26751 23.6003 7.87479 20.6554 8.7274C18.6714 9.30056 16.4387 9.21929 14.3339 8.83106C13.8046 8.73294 13.279 8.61613 12.758 8.48086L11.4726 8.14712L12.2188 9.24574L13.9991 11.8671L14.091 12.0024L14.245 12.0572C18.1692 13.4543 22.7996 13.4542 26.7245 12.0592L26.5571 11.588L26.9698 11.8703L29.7117 7.86178ZM14.4877 7.99046L14.4881 7.99055C16.523 8.36535 18.6079 8.42979 20.4168 7.90582L20.4175 7.90561C22.3859 7.33216 24.388 6.88116 26.4122 6.5552L26.4768 5.58279C24.7353 5.05845 22.6905 4.66397 20.5354 4.66397C17.2536 4.66397 14.2063 5.57787 12.08 6.48035L12.2754 6.94061L12.1328 7.41985C12.8897 7.64501 13.6821 7.84132 14.4877 7.99046Z" fill="#FAFAFA" stroke="#FAFAFA"/>
</svg>
