<svg width="36" height="32" viewBox="0 0 36 32" fill="none" xmlns="http://www.w3.org/2000/svg">
<path d="M32.1416 1H25.4883L26.3216 9.33333C26.3216 9.33333 27.9883 11 30.4883 11C31.8006 11.0017 33.0684 10.524 34.0533 9.65667C34.1574 9.55938 34.235 9.43716 34.2787 9.30156C34.3224 9.16596 34.3309 9.02145 34.3033 8.88167L33.1266 1.83333C33.0873 1.60049 32.9668 1.38909 32.7865 1.23656C32.6062 1.08404 32.3778 1.00024 32.1416 1V1Z" stroke="white" stroke-width="2"/>
<path d="M25.4883 1L26.3216 9.33333C26.3216 9.33333 24.6549 11 22.1549 11C19.6549 11 17.9883 9.33333 17.9883 9.33333V1H25.4883Z" stroke="#FAFAFA" stroke-width="2"/>
<path d="M17.9884 1V9.33333C17.9884 9.33333 16.3217 11 13.8217 11C11.3217 11 9.65503 9.33333 9.65503 9.33333L10.4884 1H17.9884Z" stroke="#FAFAFA" stroke-width="2"/>
<path d="M10.4883 1H3.8366C3.59993 0.999912 3.37089 1.08377 3.19023 1.23666C3.00957 1.38955 2.88899 1.60157 2.84994 1.835L1.67494 8.88333C1.64747 9.02311 1.65601 9.16758 1.69974 9.30315C1.74348 9.43873 1.82097 9.56095 1.92494 9.65833C2.4716 10.1417 3.69327 11.0017 5.48827 11.0017C7.98827 11.0017 9.65494 9.335 9.65494 9.335L10.4883 1.00167V1Z" stroke="#FAFAFA" stroke-width="2"/>
<path d="M3 11V27.6667C3 28.5507 3.35119 29.3986 3.97631 30.0237C4.60143 30.6488 5.44928 31 6.33333 31H29.6667C30.5507 31 31.3986 30.6488 32.0237 30.0237C32.6488 29.3986 33 28.5507 33 27.6667V11" stroke="#FAFAFA" stroke-width="2"/>
<path d="M22.7217 31V21C22.7217 20.1159 22.3705 19.2681 21.7454 18.643C21.1202 18.0178 20.2724 17.6667 19.3883 17.6667H16.055C15.171 17.6667 14.3231 18.0178 13.698 18.643C13.0729 19.2681 12.7217 20.1159 12.7217 21V31" stroke="#FAFAFA" stroke-width="2" stroke-miterlimit="16"/>
</svg>
